<?xml version="1.0" standalone="no"?>
<!DOCTYPE svg PUBLIC "-//W3C//DTD SVG 20010904//EN"
 "http://www.w3.org/TR/2001/REC-SVG-20010904/DTD/svg10.dtd">
<svg version="1.0" xmlns="http://www.w3.org/2000/svg"
 width="300.000000pt" height="300.000000pt" viewBox="0 0 300.000000 300.000000"
 preserveAspectRatio="xMidYMid meet">
<metadata>
Created by potrace 1.11, written by Peter Selinger 2001-2013
</metadata>
<g transform="translate(0.000000,300.000000) scale(0.100000,-0.100000)"
fill="#000000" stroke="none">
<path d="M1869 2916 c-2 -2 -38 -6 -79 -10 -258 -21 -516 -91 -588 -159 -37
-36 -21 -40 -147 37 -82 50 -104 55 -127 27 -26 -33 -49 -115 -54 -201 -3 -41
-12 -92 -20 -114 -24 -63 -20 -171 9 -237 l25 -56 -18 -42 c-11 -23 -19 -44
-19 -46 -1 -3 -8 -22 -17 -43 -8 -20 -18 -49 -21 -64 -9 -44 -27 -38 -140 44
-57 42 -77 47 -69 21 3 -10 7 -31 10 -46 3 -16 12 -50 20 -75 8 -26 17 -59 20
-75 6 -32 43 -113 83 -177 l28 -45 -30 19 c-56 36 -68 45 -112 87 -50 47 -60
39 -49 -37 9 -72 59 -165 116 -218 57 -53 62 -69 10 -31 -48 35 -64 33 -56 -7
13 -67 68 -129 214 -245 12 -10 24 -27 26 -38 19 -94 70 -158 256 -316 74 -63
109 -98 110 -110 0 -4 -17 -10 -37 -14 -62 -11 -72 -26 -66 -103 5 -65 16 -87
38 -75 5 3 -6 -8 -25 -25 -19 -17 -40 -31 -47 -32 -17 0 -112 -111 -153 -178
l-36 -59 -29 15 c-30 14 -121 114 -171 187 -83 122 -232 513 -260 685 -2 14
-6 34 -9 46 -22 98 -35 407 -21 496 3 18 8 53 11 78 22 176 58 344 109 508 53
170 90 309 92 352 3 82 -59 190 -110 190 -40 0 -89 -21 -151 -66 -175 -124
-230 -227 -261 -488 -2 -24 -7 -55 -9 -67 -19 -97 -25 -394 -12 -564 11 -139
18 -180 54 -315 14 -52 26 -102 28 -110 7 -32 106 -376 114 -395 5 -11 26 -62
46 -114 58 -143 137 -279 278 -475 47 -64 184 -204 219 -222 23 -12 141 -14
725 -12 l698 3 9 36 c20 83 -21 154 -118 205 -50 26 -56 32 -61 69 -4 22 -20
84 -37 138 -20 66 -28 109 -24 130 3 18 8 41 10 52 5 27 17 112 22 155 3 28
-13 103 -33 157 -4 11 37 22 137 38 19 3 51 10 70 15 19 5 53 12 75 14 107 14
296 113 376 198 64 68 131 178 165 273 25 69 38 171 23 181 -5 3 -9 0 -9 -5 0
-6 -4 -11 -10 -11 -6 0 -6 10 1 26 5 15 11 56 13 90 3 50 1 64 -10 64 -8 0
-14 -6 -14 -14 0 -8 -3 -17 -7 -19 -5 -3 -8 50 -8 116 0 116 -17 227 -35 227
-5 0 -13 -12 -18 -27 l-10 -28 -21 48 c-25 58 -26 80 -5 98 51 42 108 184 100
249 -14 107 -44 197 -78 230 -8 8 -23 28 -33 43 -10 15 -20 25 -23 23 -2 -3
-11 1 -18 9 -8 8 -20 12 -27 10 -7 -2 -34 -6 -61 -9 -27 -3 -54 -10 -59 -15
-6 -6 -38 6 -86 30 -77 40 -228 83 -331 94 -30 3 -73 8 -95 11 -59 8 -162 14
-166 10z m-164 -195 c-3 -2 -17 -6 -32 -7 -20 -2 -23 0 -14 6 15 8 54 10 46 1z
m512 -19 c11 -6 32 -13 47 -16 26 -5 127 -36 134 -41 1 -1 -2 -14 -7 -28 -7
-17 -27 -34 -55 -48 l-45 -21 -103 59 c-123 70 -141 79 -193 97 -38 14 -34 14
81 12 66 -2 129 -8 141 -14z m-592 -2 c-4 -7 3 -9 22 -5 21 4 16 -1 -19 -18
-26 -14 -62 -34 -81 -45 -29 -19 -39 -20 -72 -11 l-39 11 28 15 c40 21 136 53
136 45 0 -3 5 -1 12 6 15 15 21 16 13 2z m382 -152 c2 -17 0 -19 -7 -8 -5 8
-6 18 -4 22 8 12 10 10 11 -14z m-319 -33 c-3 -30 -11 -23 -13 9 0 14 3 22 7
20 4 -3 7 -16 6 -29z m77 25 c3 -5 1 -10 -4 -10 -6 0 -11 5 -11 10 0 6 2 10 4
10 3 0 8 -4 11 -10z m205 0 c0 -5 -5 -10 -11 -10 -5 0 -7 5 -4 10 3 6 8 10 11
10 2 0 4 -4 4 -10z m83 -7 c-5 -12 -3 -14 8 -8 11 6 12 5 2 -5 -7 -8 -16 -11
-19 -7 -7 6 2 37 10 37 3 0 2 -7 -1 -17z m-323 -28 c0 -5 -5 -3 -10 5 -5 8
-10 20 -10 25 0 6 5 3 10 -5 5 -8 10 -19 10 -25z m70 9 c0 -8 4 -13 9 -9 5 3
12 1 15 -3 7 -12 -41 -9 -51 2 -5 5 -2 6 6 1 11 -6 13 -4 8 8 -3 10 -2 17 3
17 6 0 10 -7 10 -16z m222 -8 c7 4 8 2 4 -5 -9 -13 -26 -5 -25 12 0 9 2 8 6
-1 2 -6 10 -9 15 -6z m68 -28 c0 -19 -16 -5 -17 14 -2 18 0 20 7 8 5 -8 10
-18 10 -22z m20 22 c0 -5 -2 -10 -4 -10 -3 0 -8 5 -11 10 -3 6 -1 10 4 10 6 0
11 -4 11 -10z m135 -11 c-4 -5 -1 -9 6 -9 7 0 10 -3 6 -6 -3 -3 -14 -1 -24 5
-11 6 -13 11 -5 11 7 0 10 5 6 12 -4 7 -3 8 5 4 6 -4 9 -12 6 -17z m-601 -9
c-8 -7 -74 -7 -74 0 0 4 18 7 39 6 22 0 37 -3 35 -6z m106 0 c0 -5 -2 -10 -4
-10 -3 0 -8 5 -11 10 -3 6 -1 10 4 10 6 0 11 -4 11 -10z m-195 -10 c-3 -5 -1
-10 6 -10 7 0 10 -3 6 -6 -9 -9 -28 6 -22 17 4 5 8 9 11 9 3 0 2 -4 -1 -10z
m568 -5 c-3 -9 -8 -14 -10 -11 -3 3 -2 9 2 15 9 16 15 13 8 -4z m107 1 c0 -3
-4 -8 -10 -11 -5 -3 -10 -1 -10 4 0 6 5 11 10 11 6 0 10 -2 10 -4z m-649 -39
c-10 -9 -11 -8 -5 6 3 10 9 15 12 12 3 -3 0 -11 -7 -18z m509 19 c0 -2 -7 -7
-16 -10 -8 -3 -12 -2 -9 4 6 10 25 14 25 6z m160 -17 c0 -5 -4 -9 -8 -9 -5 0
-9 7 -9 15 0 8 4 12 9 9 4 -3 8 -9 8 -15z m40 -9 c0 -5 -2 -10 -4 -10 -3 0 -8
5 -11 10 -3 6 -1 10 4 10 6 0 11 -4 11 -10z m77 -11 c1 -15 -25 -50 -28 -38
-8 38 -7 40 7 28 9 -8 14 -8 14 -1 0 6 -8 15 -17 21 -16 9 -16 10 3 8 11 0 21
-8 21 -18z m-60 -21 c-3 -7 -5 -2 -5 12 0 14 2 19 5 13 2 -7 2 -19 0 -25z
m-29 10 c7 -7 12 -17 12 -22 0 -6 -5 -3 -11 7 -6 9 -14 15 -20 12 -5 -4 -9 -1
-9 4 0 14 13 14 28 -1z m-632 -33 c-1 -8 -5 -17 -8 -21 -5 -4 -4 16 1 34 3 9
9 -1 7 -13z m731 8 c-4 -3 -2 -12 4 -19 10 -13 -6 -32 -18 -20 -4 3 -1 6 6 6
7 0 9 5 6 10 -4 6 -12 7 -18 3 -7 -4 -6 0 2 10 7 9 16 17 19 17 3 0 2 -3 -1
-7z m-687 -15 c0 -4 -4 -8 -9 -8 -6 0 -12 4 -15 8 -3 5 1 9 9 9 8 0 15 -4 15
-9z m34 -4 c3 -8 2 -12 -4 -9 -6 3 -10 10 -10 16 0 14 7 11 14 -7z m611 5 c11
-16 1 -19 -13 -3 -7 8 -8 14 -3 14 5 0 13 -5 16 -11z m-155 -19 c8 -5 11 -10
5 -10 -5 0 -17 5 -25 10 -8 5 -10 10 -5 10 6 0 17 -5 25 -10z m130 6 c0 -3 -4
-8 -10 -11 -5 -3 -10 -1 -10 4 0 6 5 11 10 11 6 0 10 -2 10 -4z m-1980 -30
c-7 -7 -13 -7 -20 0 -6 6 -3 10 10 10 13 0 16 -4 10 -10z m120 -60 c0 -2 -8
-10 -17 -17 -16 -13 -17 -12 -4 4 13 16 21 21 21 13z m-75 -36 c-3 -5 -12 -10
-18 -10 -7 0 -6 4 3 10 19 12 23 12 15 0z m-7 -65 c-3 -3 -9 2 -12 12 -6 14
-5 15 5 6 7 -7 10 -15 7 -18z m62 -9 c0 -3 -4 -8 -10 -11 -5 -3 -10 -1 -10 4
0 6 5 11 10 11 6 0 10 -2 10 -4z m-22 -111 c-3 -3 -9 2 -12 12 -6 14 -5 15 5
6 7 -7 10 -15 7 -18z m-98 -15 c0 -5 -5 -10 -11 -10 -5 0 -7 5 -4 10 3 6 8 10
11 10 2 0 4 -4 4 -10z m54 1 c3 -5 -2 -15 -12 -22 -15 -12 -16 -12 -5 2 7 9
10 19 6 22 -3 4 -4 7 0 7 3 0 8 -4 11 -9z m616 -21 c8 -5 11 -10 5 -10 -5 0
-17 5 -25 10 -8 5 -10 10 -5 10 6 0 17 -5 25 -10z m146 -22 c4 -7 3 -8 -4 -4
-8 5 -12 -1 -13 -16 0 -13 -3 -17 -6 -10 -5 13 2 42 11 42 3 0 8 -5 12 -12z
m59 -18 c3 -5 1 -10 -4 -10 -6 0 -11 5 -11 10 0 6 2 10 4 10 3 0 8 -4 11 -10z
m-181 -18 c3 -5 -1 -9 -9 -9 -8 0 -15 4 -15 9 0 4 4 8 9 8 6 0 12 -4 15 -8z
m86 -2 c0 -5 -5 -10 -11 -10 -5 0 -7 5 -4 10 3 6 8 10 11 10 2 0 4 -4 4 -10z
m79 -13 c-2 -1 -12 -9 -22 -16 -15 -12 -17 -12 -11 3 3 9 13 16 22 16 8 0 13
-1 11 -3z m-106 -182 c-3 -9 -8 -14 -10 -11 -3 3 -2 9 2 15 9 16 15 13 8 -4z
m85 -10 c-3 -3 -9 2 -12 12 -6 14 -5 15 5 6 7 -7 10 -15 7 -18z m102 1 c0 -2
-8 -10 -17 -17 -16 -13 -17 -12 -4 4 13 16 21 21 21 13z m-209 -43 c13 -16 12
-17 -3 -4 -10 7 -18 15 -18 17 0 8 8 3 21 -13z m198 -17 c9 -11 9 -16 -1 -22
-7 -4 -10 -4 -6 1 4 4 3 14 -3 22 -6 7 -9 13 -6 13 2 0 10 -6 16 -14z m122 -3
c13 -16 12 -17 -3 -4 -17 13 -22 21 -14 21 2 0 10 -8 17 -17z m1409 -153 c0
-5 -5 -10 -11 -10 -5 0 -7 5 -4 10 3 6 8 10 11 10 2 0 4 -4 4 -10z m77 -5 c0
-8 -4 -12 -9 -9 -5 3 -6 10 -3 15 9 13 12 11 12 -6z m-1662 -15 c3 -5 1 -10
-4 -10 -6 0 -11 5 -11 10 0 6 2 10 4 10 3 0 8 -4 11 -10z m243 -25 c-3 -3 -9
2 -12 12 -6 14 -5 15 5 6 7 -7 10 -15 7 -18z m1259 -2 c0 -9 -4 -10 -14 -2 -7
6 -13 12 -13 14 0 1 6 2 13 2 8 0 14 -6 14 -14z m43 13 c0 -2 -7 -7 -16 -10
-8 -3 -12 -2 -9 4 6 10 25 14 25 6z m51 -13 c13 -16 12 -17 -3 -5 -9 8 -23 10
-29 6 -8 -4 -9 -3 -5 4 10 17 21 15 37 -5z m-1646 -32 c-9 -8 -36 -10 -30 -2
2 4 11 8 20 8 8 0 13 -3 10 -6z m1626 -8 c12 -16 12 -17 -2 -6 -9 7 -20 9 -24
5 -5 -4 -5 -1 -1 6 9 16 11 15 27 -5z m-1691 -13 c0 -5 -5 -10 -11 -10 -5 0
-7 5 -4 10 3 6 8 10 11 10 2 0 4 -4 4 -10z m55 -9 c3 -5 2 -12 -3 -15 -5 -3
-9 1 -9 9 0 17 3 19 12 6z m-825 -7 c0 -8 -19 -13 -24 -6 -3 5 1 9 9 9 8 0 15
-2 15 -3z m30 -4 c0 -5 -5 -10 -11 -10 -5 0 -7 5 -4 10 3 6 8 10 11 10 2 0 4
-4 4 -10z m955 -8 c-3 -3 -11 0 -18 7 -9 10 -8 11 6 5 10 -3 15 -9 12 -12z
m36 1 c13 -16 12 -17 -3 -4 -17 13 -22 21 -14 21 2 0 10 -8 17 -17z m-70 -30
c13 -16 12 -17 -3 -4 -10 7 -18 15 -18 17 0 8 8 3 21 -13z m-181 -28 c0 -5 -5
-3 -10 5 -5 8 -10 20 -10 25 0 6 5 3 10 -5 5 -8 10 -19 10 -25z m576 -10 c-1
-8 -5 -17 -8 -21 -5 -4 -4 16 1 34 3 9 9 -1 7 -13z m-472 -7 c-3 -4 -9 -8 -15
-8 -5 0 -9 4 -9 8 0 5 7 9 15 9 8 0 12 -4 9 -9z m511 -6 c-3 -3 -11 0 -18 7
-9 10 -8 11 6 5 10 -3 15 -9 12 -12z m83 -37 c-3 -3 -9 2 -12 12 -6 14 -5 15
5 6 7 -7 10 -15 7 -18z m-138 -9 c0 -3 -4 -8 -10 -11 -5 -3 -10 -1 -10 4 0 6
5 11 10 11 6 0 10 -2 10 -4z m-236 -44 c3 -5 -1 -9 -9 -9 -8 0 -12 4 -9 9 3 4
7 8 9 8 2 0 6 -4 9 -8z m-124 -42 c0 -5 -2 -10 -4 -10 -3 0 -8 5 -11 10 -3 6
-1 10 4 10 6 0 11 -4 11 -10z m194 -26 c3 -8 2 -12 -4 -9 -6 3 -10 10 -10 16
0 14 7 11 14 -7z m83 1 c0 -8 -4 -12 -9 -9 -5 3 -6 10 -3 15 9 13 12 11 12 -6z
m-317 -15 c0 -5 -2 -10 -4 -10 -3 0 -8 5 -11 10 -3 6 -1 10 4 10 6 0 11 -4 11
-10z m2 -115 c31 -9 67 -18 80 -20 67 -11 99 -14 163 -16 39 -1 73 -4 77 -6 4
-2 -16 -39 -46 -81 -30 -42 -69 -107 -86 -143 -25 -50 -42 -71 -69 -85 -20
-10 -39 -23 -43 -29 -4 -5 -8 -6 -8 -1 0 5 -8 2 -17 -5 -10 -7 -3 2 15 20 18
19 30 36 28 38 -5 5 6 20 39 55 l20 20 -22 -11 c-18 -9 -24 -8 -37 11 -8 12
-13 25 -10 30 3 4 0 8 -6 8 -6 0 -8 5 -5 10 3 6 2 10 -3 10 -5 0 -12 9 -15 19
-2 11 -49 52 -103 92 -105 76 -194 162 -194 186 0 10 28 0 93 -35 50 -28 118
-57 149 -67z m188 101 c0 -2 -8 -10 -17 -17 -16 -13 -17 -12 -4 4 13 16 21 21
21 13z m124 -12 c3 -8 2 -12 -4 -9 -6 3 -10 10 -10 16 0 14 7 11 14 -7z m-84
-30 c0 -8 -19 -13 -24 -6 -3 5 1 9 9 9 8 0 15 -2 15 -3z m65 -253 c3 -5 2 -12
-3 -15 -5 -3 -9 1 -9 9 0 17 3 19 12 6z m65 -125 c0 -3 -4 -8 -10 -11 -5 -3
-10 -1 -10 4 0 6 5 11 10 11 6 0 10 -2 10 -4z m-223 -101 c0 -8 -4 -12 -9 -9
-5 3 -6 10 -3 15 9 13 12 11 12 -6z m-26 -38 c-10 -9 -11 -8 -5 6 3 10 9 15
12 12 3 -3 0 -11 -7 -18z m69 9 c0 -2 -8 -10 -17 -17 -16 -13 -17 -12 -4 4 13
16 21 21 21 13z m-280 -132 c0 -8 -19 -13 -24 -6 -3 5 1 9 9 9 8 0 15 -2 15
-3z m-83 -79 c0 -8 -4 -12 -9 -9 -5 3 -6 10 -3 15 9 13 12 11 12 -6z m364 -2
c13 -16 12 -17 -3 -4 -17 13 -22 21 -14 21 2 0 10 -8 17 -17z m34 -2 c3 -5 2
-12 -3 -15 -5 -3 -9 1 -9 9 0 17 3 19 12 6z m45 -5 c-7 -7 -13 -7 -20 0 -6 6
-3 10 10 10 13 0 16 -4 10 -10z m-85 -65 c3 -5 2 -12 -3 -15 -5 -3 -9 1 -9 9
0 17 3 19 12 6z m-324 -24 c-10 -9 -11 -8 -5 6 3 10 9 15 12 12 3 -3 0 -11 -7
-18z m215 -109 c3 -4 -1 -5 -10 -4 -8 1 -18 5 -22 8 -3 4 1 5 10 4 8 -1 18 -5
22 -8z"/>
</g>
</svg>
