<?xml version="1.0" standalone="no"?>
<!DOCTYPE svg PUBLIC "-//W3C//DTD SVG 20010904//EN"
 "http://www.w3.org/TR/2001/REC-SVG-20010904/DTD/svg10.dtd">
<svg version="1.0" xmlns="http://www.w3.org/2000/svg"
 width="300.000000pt" height="300.000000pt" viewBox="0 0 300.000000 300.000000"
 preserveAspectRatio="xMidYMid meet">
<metadata>
Created by potrace 1.11, written by Peter Selinger 2001-2013
</metadata>
<g transform="translate(0.000000,300.000000) scale(0.100000,-0.100000)"
fill="#000000" stroke="none">
<path d="M1307 2473 c-3 -5 -8 -37 -12 -73 -4 -36 -9 -74 -11 -85 -3 -11 -5
-50 -6 -86 -1 -65 -2 -67 -35 -83 -30 -14 -32 -19 -28 -49 5 -31 3 -36 -25
-47 -17 -7 -60 -41 -95 -76 -141 -142 -196 -354 -171 -659 15 -185 109 -430
204 -536 26 -29 42 -54 36 -56 -23 -8 -73 -60 -83 -86 -6 -15 -17 -27 -25 -27
-20 0 -138 -51 -154 -67 -17 -17 -16 -17 -67 13 -25 14 -49 23 -54 20 -5 -3
-11 -1 -13 6 -5 15 -182 20 -218 6 -14 -5 -36 -12 -50 -15 -61 -11 -220 -121
-220 -152 0 -6 -4 -11 -8 -11 -13 0 -70 -121 -82 -172 -13 -56 -13 -153 1
-200 l10 -38 1399 0 1400 0 0 268 c0 147 -4 272 -8 277 -7 10 -99 57 -137 70
-85 30 -211 39 -295 21 -60 -13 -178 -77 -225 -123 -25 -24 -45 -37 -45 -29 0
19 -48 122 -63 134 -23 19 -82 49 -112 57 -53 14 -60 16 -82 17 -14 0 -24 9
-27 24 -7 27 -75 70 -126 79 -19 3 -44 8 -55 10 -11 2 -24 4 -28 4 -4 1 2 12
15 26 27 29 71 112 84 160 21 78 38 265 24 265 -3 0 -6 44 -7 98 -7 286 -28
407 -96 550 -54 114 -169 206 -259 207 -20 0 -36 2 -35 5 5 19 -27 49 -54 52
-29 3 -33 8 -56 73 -43 122 -85 225 -93 230 -5 3 -11 2 -13 -2z"/>
</g>
</svg>
